HIERARCHY
ROOT Hips
{
	OFFSET 0.000000 97.167313 0.000000
	CHANNELS 6 Xposition Yposition Zposition Xrotation Yrotation Zrotation
	JOINT Spine
	{
		OFFSET 0.000000 13.784798 0.064400
		CHANNELS 3 Xrotation Yrotation Zrotation
		JOINT Spine1
		{
			OFFSET 0.000000 12.037903 0.404700
			CHANNELS 3 Xrotation Yrotation Zrotation
			JOINT Spine2
			{
				OFFSET 0.000000 17.795601 0.420200
				CHANNELS 3 Xrotation Yrotation Zrotation
				JOINT Neck
				{
					OFFSET 0.000000 39.131302 11.954600
					CHANNELS 3 Xrotation Yrotation Zrotation
					JOINT Head
					{
						OFFSET 0.000000 14.456192 15.627699
						CHANNELS 3 Xrotation Yrotation Zrotation
						JOINT HeadTop_End
						{
							OFFSET 0.000000 15.703506 7.603401
							CHANNELS 3 Xrotation Yrotation Zrotation
							End Site
							{
								OFFSET 0.000000 17.447403 0.000000
							}
						}
					}
				}
				JOINT LeftShoulder
				{
					OFFSET 17.399500 24.608795 1.168800
					CHANNELS 3 Xrotation Yrotation Zrotation
					JOINT LeftArm
					{
						OFFSET 18.980635 5.765305 1.818600
						CHANNELS 3 Xrotation Yrotation Zrotation
						JOINT LeftForeArm
						{
							OFFSET 49.290169 0.000000 0.000000
							CHANNELS 3 Xrotation Yrotation Zrotation
							JOINT LeftHand
							{
								OFFSET 31.562012 0.000000 0.000000
								CHANNELS 3 Xrotation Yrotation Zrotation
								JOINT LeftHandThumb1
								{
									OFFSET 6.133995 -4.388519 7.076070
									CHANNELS 3 Xrotation Yrotation Zrotation
									JOINT LeftHandThumb2
									{
										OFFSET 6.037666 -3.485840 3.485847
										CHANNELS 3 Xrotation Yrotation Zrotation
										JOINT LeftHandThumb3
										{
											OFFSET 6.496506 -3.750763 3.750761
											CHANNELS 3 Xrotation Yrotation Zrotation
											JOINT LeftHandThumb4
											{
												OFFSET 5.616882 -3.242905 3.242910
												CHANNELS 3 Xrotation Yrotation Zrotation
												End Site
												{
													OFFSET -1.254608 7.132141 0.375429
												}
											}
										}
									}
								}
								JOINT LeftHandPinky1
								{
									OFFSET 18.920792 -0.453171 -11.426712
									CHANNELS 3 Xrotation Yrotation Zrotation
									JOINT LeftHandPinky2
									{
										OFFSET 4.919586 0.000000 0.000000
										CHANNELS 3 Xrotation Yrotation Zrotation
										JOINT LeftHandPinky3
										{
											OFFSET 5.233047 0.000000 0.000000
											CHANNELS 3 Xrotation Yrotation Zrotation
											JOINT LeftHandPinky4
											{
												OFFSET 5.571716 0.000000 0.000000
												CHANNELS 3 Xrotation Yrotation Zrotation
												End Site
												{
													OFFSET -3.459808 4.342407 -0.466164
												}
											}
										}
									}
								}
								JOINT LeftHandRing1
								{
									OFFSET 22.726120 -0.094986 -6.500475
									CHANNELS 3 Xrotation Yrotation Zrotation
									JOINT LeftHandRing2
									{
										OFFSET 6.408615 0.000000 0.000000
										CHANNELS 3 Xrotation Yrotation Zrotation
										JOINT LeftHandRing3
										{
											OFFSET 6.150223 0.000000 0.000000
											CHANNELS 3 Xrotation Yrotation Zrotation
											JOINT LeftHandRing4
											{
												OFFSET 6.145386 0.000000 0.000000
												CHANNELS 3 Xrotation Yrotation Zrotation
												End Site
												{
													OFFSET -3.671402 4.923981 -0.202372
												}
											}
										}
									}
								}
								JOINT LeftHandMiddle1
								{
									OFFSET 23.373947 0.000000 0.000001
									CHANNELS 3 Xrotation Yrotation Zrotation
									JOINT LeftHandMiddle2
									{
										OFFSET 6.996567 0.000000 0.000000
										CHANNELS 3 Xrotation Yrotation Zrotation
										JOINT LeftHandMiddle3
										{
											OFFSET 7.015945 0.000000 0.000000
											CHANNELS 3 Xrotation Yrotation Zrotation
											JOINT LeftHandMiddle4
											{
												OFFSET 7.721573 0.000000 0.000000
												CHANNELS 3 Xrotation Yrotation Zrotation
												End Site
												{
													OFFSET -4.651108 6.158463 0.251582
												}
											}
										}
									}
								}
								JOINT LeftHandIndex1
								{
									OFFSET 21.310577 -0.490082 6.209344
									CHANNELS 3 Xrotation Yrotation Zrotation
									JOINT LeftHandIndex2
									{
										OFFSET 7.536453 0.000000 0.000000
										CHANNELS 3 Xrotation Yrotation Zrotation
										JOINT LeftHandIndex3
										{
											OFFSET 7.512344 0.000000 0.000000
											CHANNELS 3 Xrotation Yrotation Zrotation
											JOINT LeftHandIndex4
											{
												OFFSET 10.212402 0.000000 0.000001
												CHANNELS 3 Xrotation Yrotation Zrotation
												End Site
												{
													OFFSET -5.180801 8.690506 1.388433
												}
											}
										}
									}
								}
							}
						}
					}
				}
				JOINT RightShoulder
				{
					OFFSET -17.399500 24.608795 1.168800
					CHANNELS 3 Xrotation Yrotation Zrotation
					JOINT RightArm
					{
						OFFSET -18.980635 5.765305 1.818600
						CHANNELS 3 Xrotation Yrotation Zrotation
						JOINT RightForeArm
						{
							OFFSET -49.290169 0.000000 0.000000
							CHANNELS 3 Xrotation Yrotation Zrotation
							JOINT RightHand
							{
								OFFSET -31.562012 0.000000 0.000000
								CHANNELS 3 Xrotation Yrotation Zrotation
								JOINT RightHandThumb1
								{
									OFFSET -6.133995 -4.388519 7.076070
									CHANNELS 3 Xrotation Yrotation Zrotation
									JOINT RightHandThumb2
									{
										OFFSET -6.037666 -3.485840 3.485847
										CHANNELS 3 Xrotation Yrotation Zrotation
										JOINT RightHandThumb3
										{
											OFFSET -6.496506 -3.750763 3.750761
											CHANNELS 3 Xrotation Yrotation Zrotation
											JOINT RightHandThumb4
											{
												OFFSET -5.616882 -3.242905 3.242910
												CHANNELS 3 Xrotation Yrotation Zrotation
												End Site
												{
													OFFSET 1.254608 7.132141 0.375429
												}
											}
										}
									}
								}
								JOINT RightHandIndex1
								{
									OFFSET -21.310577 -0.490082 6.209344
									CHANNELS 3 Xrotation Yrotation Zrotation
									JOINT RightHandIndex2
									{
										OFFSET -7.536453 0.000000 0.000000
										CHANNELS 3 Xrotation Yrotation Zrotation
										JOINT RightHandIndex3
										{
											OFFSET -7.512344 0.000000 0.000000
											CHANNELS 3 Xrotation Yrotation Zrotation
											JOINT RightHandIndex4
											{
												OFFSET -10.212402 0.000000 0.000001
												CHANNELS 3 Xrotation Yrotation Zrotation
												End Site
												{
													OFFSET 5.180801 8.690506 1.388433
												}
											}
										}
									}
								}
								JOINT RightHandMiddle1
								{
									OFFSET -23.373947 0.000000 0.000001
									CHANNELS 3 Xrotation Yrotation Zrotation
									JOINT RightHandMiddle2
									{
										OFFSET -6.996567 0.000000 0.000000
										CHANNELS 3 Xrotation Yrotation Zrotation
										JOINT RightHandMiddle3
										{
											OFFSET -7.015945 0.000000 0.000000
											CHANNELS 3 Xrotation Yrotation Zrotation
											JOINT RightHandMiddle4
											{
												OFFSET -7.721573 0.000000 0.000000
												CHANNELS 3 Xrotation Yrotation Zrotation
												End Site
												{
													OFFSET 4.651108 6.158463 0.251582
												}
											}
										}
									}
								}
								JOINT RightHandRing1
								{
									OFFSET -22.726120 -0.094986 -6.500475
									CHANNELS 3 Xrotation Yrotation Zrotation
									JOINT RightHandRing2
									{
										OFFSET -6.408615 0.000000 0.000000
										CHANNELS 3 Xrotation Yrotation Zrotation
										JOINT RightHandRing3
										{
											OFFSET -6.150223 0.000000 0.000000
											CHANNELS 3 Xrotation Yrotation Zrotation
											JOINT RightHandRing4
											{
												OFFSET -6.145386 0.000000 0.000000
												CHANNELS 3 Xrotation Yrotation Zrotation
												End Site
												{
													OFFSET 3.671402 4.923981 -0.202372
												}
											}
										}
									}
								}
								JOINT RightHandPinky1
								{
									OFFSET -18.920792 -0.453171 -11.426712
									CHANNELS 3 Xrotation Yrotation Zrotation
									JOINT RightHandPinky2
									{
										OFFSET -4.919586 0.000000 0.000000
										CHANNELS 3 Xrotation Yrotation Zrotation
										JOINT RightHandPinky3
										{
											OFFSET -5.233047 0.000000 0.000000
											CHANNELS 3 Xrotation Yrotation Zrotation
											JOINT RightHandPinky4
											{
												OFFSET -5.571716 0.000000 0.000000
												CHANNELS 3 Xrotation Yrotation Zrotation
												End Site
												{
													OFFSET 3.459808 4.342407 -0.466164
												}
											}
										}
									}
								}
							}
						}
					}
				}
			}
		}
	}
	JOINT LeftUpLeg
	{
		OFFSET 19.899099 -7.885101 -3.429500
		CHANNELS 3 Xrotation Yrotation Zrotation
		JOINT LeftLeg
		{
			OFFSET 1.745560 -36.997807 10.304700
			CHANNELS 3 Xrotation Yrotation Zrotation
			JOINT LeftFoot
			{
				OFFSET -1.745558 -29.803308 -13.615400
				CHANNELS 3 Xrotation Yrotation Zrotation
				JOINT LeftToeBase
				{
					OFFSET 1.181900 -18.539904 15.226099
					CHANNELS 3 Xrotation Yrotation Zrotation
					JOINT LeftToe_End
					{
						OFFSET -0.863701 1.402801 16.534700
						CHANNELS 3 Xrotation Yrotation Zrotation
						End Site
						{
							OFFSET 0.000000 16.616566 0.000000
						}
					}
				}
			}
		}
	}
	JOINT RightUpLeg
	{
		OFFSET -19.899099 -7.885101 -3.429500
		CHANNELS 3 Xrotation Yrotation Zrotation
		JOINT RightLeg
		{
			OFFSET -1.745560 -36.997807 10.304700
			CHANNELS 3 Xrotation Yrotation Zrotation
			JOINT RightFoot
			{
				OFFSET 1.745558 -29.803308 -13.615400
				CHANNELS 3 Xrotation Yrotation Zrotation
				JOINT RightToeBase
				{
					OFFSET -1.181900 -18.539904 15.226099
					CHANNELS 3 Xrotation Yrotation Zrotation
					JOINT RightToe_End
					{
						OFFSET 0.863701 1.402801 16.534700
						CHANNELS 3 Xrotation Yrotation Zrotation
						End Site
						{
							OFFSET 0.000000 16.616566 0.000000
						}
					}
				}
			}
		}
	}
}
MOTION
Frames: 4
Frame Time: 0.033333
-0.671152 56.449051 0.879933 13.080056 -53.531659 13.061362 11.849978 3.321834 -0.254617 7.746016 6.217769 -0.418227 -4.171467 6.170282 0.874651 -0.947382 21.780442 1.714677 0.217776 11.198922 -12.003883 0.000000 0.000000 0.000000 -1.108114 3.618078 2.331811 -78.591572 4.930343 -10.397949 118.430453 -50.861198 110.501444 32.271971 -11.658539 29.740539 16.179069 -8.282729 3.084056 -1.149416 11.254687 -8.404308 5.706898 8.482880 -0.820598 -0.000001 -0.000004 0.000003 7.625197 16.745421 -6.662531 -0.808718 -0.078560 -13.428743 -2.272696 -0.049096 -22.582436 0.000002 -0.000003 0.000001 3.014452 7.862462 -16.311265 -0.674638 -0.402515 -14.918562 -0.650719 -0.489249 -17.001169 0.000003 -0.000000 0.000002 1.889178 4.660386 -4.667127 0.475536 -1.013890 -13.055779 0.626065 -1.351622 -16.623268 -0.000001 0.000003 0.000004 -1.236194 -5.770600 -0.262146 0.137248 -0.200251 -4.671546 0.055219 -0.451535 -7.637617 0.000001 0.000001 0.000001 -1.496216 27.719302 0.110452 -62.440988 54.656099 64.044423 -13.876990 54.806889 14.430665 4.073556 -2.590165 -13.538358 55.149587 18.649575 -29.698250 -0.441776 -14.179805 7.309998 21.667011 -29.244514 9.142416 0.000000 0.000001 -0.000001 5.675353 7.587546 36.843649 1.050758 3.822302 68.900462 0.499512 3.026034 62.196543 0.000001 -0.000003 0.000003 -0.126796 1.886001 45.000654 -1.169625 3.204675 68.417739 -0.936620 1.809479 41.107678 -0.000002 0.000001 -0.000008 -5.311980 1.216637 58.508848 -0.746195 1.666455 48.011322 -0.816927 1.844385 53.666466 -0.000000 0.000002 -0.000005 -7.756742 -9.376508 47.263946 -0.525694 1.542382 45.600549 -0.508171 0.803407 24.986608 -0.000000 0.000000 -0.000003 -79.613655 5.033424 53.072182 69.730330 -23.292962 0.539844 2.809932 5.069338 -15.343947 -0.389979 -5.714512 0.892694 0.000000 0.000002 0.000000 -38.736007 14.677902 -42.642660 75.767548 19.451178 -1.340607 -40.679316 -8.968267 29.021419 0.528317 2.970178 1.471354 -0.000000 0.000001 -0.000000 
-0.870868 56.449509 1.025849 12.424377 -52.459978 12.280655 11.762310 3.367946 -0.289697 7.568134 6.210802 -0.436227 -4.349293 6.167182 0.855598 -1.201815 21.211607 2.501502 0.466097 10.985584 -12.160378 0.000001 -0.000000 -0.000000 -0.998116 3.107844 2.269736 -79.032529 4.475358 -9.759405 116.437117 -49.351460 108.205790 32.436811 -12.101670 30.324172 16.010867 -8.279130 3.160497 -1.149484 11.254715 -8.403971 5.706838 8.482876 -0.820535 -0.000001 0.000004 -0.000002 7.681746 16.634979 -7.544514 -0.809912 -0.084602 -13.528283 -2.266962 -0.033959 -23.090395 0.000002 -0.000002 -0.000004 3.010489 7.859879 -16.120879 -0.677768 -0.419740 -15.337403 -0.657629 -0.511696 -17.532365 -0.000001 0.000000 0.000005 1.884700 4.663353 -4.597372 0.476759 -1.009769 -12.986393 0.627631 -1.347154 -16.553915 -0.000001 -0.000003 0.000004 -1.236153 -5.767852 -0.192684 0.137112 -0.197205 -4.602126 0.055714 -0.448208 -7.568139 0.000000 0.000003 0.000001 -1.455812 27.881017 -0.193801 -63.176682 55.177007 65.669503 -11.734215 53.313520 12.460960 2.914329 -1.464106 -15.530542 55.149529 18.649567 -29.698281 -0.441844 -14.179867 7.310334 21.667016 -29.244520 9.142405 -0.000000 0.000000 0.000002 5.675094 7.587262 36.843707 1.050761 3.822520 68.900380 0.499523 3.026045 62.196522 -0.000001 -0.000003 -0.000001 -0.126692 1.886008 45.000677 -1.169537 3.204685 68.417684 -0.936565 1.809914 41.107719 -0.000001 0.000004 -0.000008 -5.312008 1.216649 58.508855 -0.746100 1.666582 48.011316 -0.816890 1.844022 53.666453 -0.000002 -0.000001 -0.000002 -7.756819 -9.376508 47.263936 -0.525692 1.542258 45.600535 -0.508131 0.803441 24.986581 -0.000000 -0.000001 0.000000 -80.293791 4.963664 52.146449 69.887834 -23.227370 1.191125 3.226755 4.645032 -15.200723 -0.355486 -5.726872 0.882361 -0.000000 -0.000000 0.000000 -37.141322 13.259749 -42.416028 76.063445 20.258828 -1.754844 -42.339523 -10.617620 27.826659 0.528317 2.970179 1.471354 0.000000 0.000004 0.000000 
-1.086269 56.352394 1.150543 11.698681 -51.563065 11.473336 11.728476 3.411011 -0.322082 7.497496 6.204852 -0.449328 -4.419816 6.164021 0.841542 -1.677466 20.749828 3.382989 0.772404 10.895733 -12.615563 0.000000 -0.000000 -0.000001 -1.038757 2.951656 2.231974 -79.029216 4.258286 -9.829476 115.027899 -47.212064 106.738986 32.163282 -12.325723 30.838338 16.045865 -8.481026 3.666256 -1.149575 11.254775 -8.403611 5.706794 8.482955 -0.820616 -0.000003 -0.000002 0.000003 7.725516 16.489936 -8.479858 -0.809598 -0.082482 -13.466195 -2.256974 -0.014222 -23.484859 -0.000000 -0.000001 -0.000008 3.011964 7.868478 -15.899004 -0.680759 -0.436023 -15.733168 -0.664668 -0.533337 -18.036400 -0.000000 0.000001 0.000003 1.884719 4.663390 -4.597385 0.476697 -1.009787 -12.986431 0.627753 -1.347087 -16.553903 0.000001 0.000000 0.000002 -1.235835 -5.768292 -0.192651 0.136760 -0.197257 -4.602128 0.055712 -0.448216 -7.568169 -0.000002 0.000005 -0.000001 -1.474910 27.435109 -0.400400 -64.325062 55.794002 67.982615 -10.038365 51.484911 10.829861 2.209575 0.197967 -17.365949 55.149570 18.649548 -29.698260 -0.441940 -14.179947 7.310637 21.666969 -29.244510 9.142363 -0.000001 -0.000001 0.000001 5.674941 7.587033 36.843785 1.050738 3.822783 68.900387 0.499546 3.026051 62.196468 -0.000000 -0.000008 -0.000000 -0.126536 1.886032 45.000650 -1.169512 3.204725 68.417732 -0.936523 1.810297 41.107671 0.000002 -0.000001 -0.000008 -5.311991 1.216666 58.508848 -0.745993 1.666690 48.011322 -0.816873 1.843635 53.666483 -0.000002 -0.000003 -0.000005 -7.756743 -9.376505 47.263990 -0.525795 1.542200 45.600515 -0.508121 0.803423 24.986584 -0.000002 0.000000 0.000001 -80.798092 4.779004 51.398430 70.180522 -23.228686 1.807066 3.536147 4.311011 -15.174549 -0.310999 -5.732896 0.885405 -0.000000 0.000000 0.000000 -35.263929 12.476180 -43.032046 75.986681 20.145945 -1.228904 -43.589564 -10.938876 27.722464 0.528318 2.970179 1.471354 -0.000000 -0.000000 0.000000 
-1.296615 56.204140 1.266099 11.194546 -50.950609 10.908496 11.694182 3.451219 -0.353032 7.427373 6.212249 -0.472216 -4.490163 6.175942 0.820696 -1.725406 20.677180 3.676607 0.743932 10.881622 -12.752486 0.000001 -0.000000 -0.000000 -1.086694 2.897600 2.377326 -78.319477 4.236778 -9.929346 114.029264 -45.058314 105.752174 31.482650 -11.968052 31.511344 16.257402 -8.799912 4.406978 -1.149637 11.254838 -8.403254 5.706790 8.482963 -0.820624 0.000005 0.000001 0.000002 7.758939 16.312701 -9.481893 -0.809215 -0.080182 -13.399808 -2.247066 0.004406 -23.909171 -0.000000 0.000004 -0.000005 3.014065 7.877684 -15.668608 -0.683870 -0.452254 -16.127427 -0.671887 -0.555035 -18.536035 0.000002 -0.000002 0.000005 1.884740 4.663359 -4.597396 0.476737 -1.009817 -12.986409 0.627840 -1.347028 -16.553940 0.000001 -0.000003 0.000011 -1.235428 -5.768757 -0.192605 0.136390 -0.197283 -4.602184 0.055759 -0.448198 -7.568175 0.000003 -0.000000 0.000003 -1.455072 27.165331 -0.574679 -65.495695 56.215117 70.213839 -9.385602 49.063977 9.988111 2.319428 2.322985 -18.892855 55.149546 18.649526 -29.698253 -0.442045 -14.179988 7.310916 21.667001 -29.244541 9.142350 0.000001 0.000004 0.000001 5.674738 7.586763 36.843803 1.050702 3.822959 68.900373 0.499576 3.026050 62.196522 -0.000002 -0.000003 -0.000001 -0.126445 1.886005 45.000671 -1.169434 3.204714 68.417684 -0.936577 1.810720 41.107623 0.000004 0.000000 -0.000008 -5.311976 1.216647 58.508821 -0.745903 1.666791 48.011298 -0.816796 1.843233 53.666518 0.000000 0.000001 -0.000001 -7.756789 -9.376522 47.263926 -0.525805 1.542135 45.600559 -0.508173 0.803406 24.986603 -0.000000 -0.000001 -0.000003 -81.117410 4.545574 50.925686 70.537898 -23.262629 2.269937 3.650651 4.125801 -15.243172 -0.263951 -5.766997 0.875552 -0.000000 0.000001 -0.000000 -33.885654 11.894832 -43.459695 76.032887 20.136456 -0.871671 -44.636796 -11.180925 27.603957 0.528318 2.970176 1.471354 -0.000000 0.000002 -0.000000 
